PathFileType	4	(X/Y/Z)	/Users/niels/Desktop/University/Third Semester/Perception and Action/Exam/Gymnastics Motion Tracking/Code for Gym Tracking/Analyzed Data/Webcam_Backflip/id1_1_baseline_Sports2D/id1_1_baseline_Sports2D_px_person00.trc
DataRate	CameraRate	NumFrames	NumMarkers	Units	OrigDataRate	OrigDataStartFrame	OrigNumFrames
29.928057553956833	29.928057553956833	8	22	m	29.928057553956833	156	417
Frame#	Time	Hip			RHip			RKnee			RAnkle			RBigToe			RSmallToe			RHeel			LHip			LKnee			LAnkle			LBigToe			LSmallToe			LHeel			Neck			Head			Nose			RShoulder			RElbow			RWrist			LShoulder			LElbow			LWrist		
		X1	Y1	Z1	X2	Y2	Z2	X3	Y3	Z3	X4	Y4	Z4	X5	Y5	Z5	X6	Y6	Z6	X7	Y7	Z7	X8	Y8	Z8	X9	Y9	Z9	X10	Y10	Z10	X11	Y11	Z11	X12	Y12	Z12	X13	Y13	Z13	X14	Y14	Z14	X15	Y15	Z15	X16	Y16	Z16	X17	Y17	Z17	X18	Y18	Z18	X19	Y19	Z19	X20	Y20	Z20	X21	Y21	Z21	X22	Y22	Z22
156	5.2124999999999995	1.5119276326921836	-0.5207605358424966	0.0	1.5274565262094093	-0.5204712673272132	0.0	1.5209183033820703	-0.7732219777374414	0.0	1.481605454542968	-1.0181323139586929	0.0	1.5763737249387182	-1.0488532736730107	0.0	1.552806176571195	-1.0596545631636594	0.0	1.4555721769204477	-1.054197211540178	0.0	1.5190849394909633	-0.5207092302027546	0.0	1.5799372561833582	-0.7599389716347612	0.0	1.6263647204741938	-1.00372565329719	0.0	1.7295745021958902	-1.0210656498235688	0.0	1.7124516687994737	-1.008336119176578	0.0	1.6157792679653635	-1.0366414341086967	0.0	1.5296175863761137	-0.15052250837529582	0.0	1.596254474376367	-0.0043779847095893045	0.0	1.6052858155065566	-0.10391917476422881	0.0	1.5264508711697264	-0.20578716446539652	0.0	1.5649286567907466	-0.39545927507868994	0.0	1.6839834412456018	-0.5356708034587098	0.0	1.4797153485193508	-0.19931613102813642	0.0	1.4821382548871138	-0.3794266244054975	0.0	1.5302402497130483	-0.5182685023581342	0.0
157	5.2459134615384615	1.521720989159879	-0.5221826697304178	0.0	1.5389593505821895	-0.5225101959960117	0.0	1.5283216805136757	-0.7764937381375349	0.0	1.4814230840724658	-1.0189029588659317	0.0	1.5824745897684558	-1.0488988313671743	0.0	1.5600875520838762	-1.0599907193829168	0.0	1.4556018052470177	-1.0546555436113019	0.0	1.5262036283003622	-0.5231103620124417	0.0	1.5889293638417155	-0.7645723321055842	0.0	1.6419306143058903	-1.010482271298219	0.0	1.7435984720732838	-1.026615112081395	0.0	1.7227604978196773	-1.0149111819055223	0.0	1.6277865115033108	-1.04301093635967	0.0	1.5377921537619377	-0.15093377210085301	0.0	1.6040052950522332	-0.004787144741388734	0.0	1.6138375543941978	-0.10431130678130193	0.0	1.5352979315429613	-0.2055973935307043	0.0	1.5743316812731951	-0.395748363443407	0.0	1.693763839275134	-0.5348594530015132	0.0	1.4846842690156572	-0.1999276546085355	0.0	1.489991269127989	-0.3806173028495104	0.0	1.5340458642568169	-0.5204356205798538	0.0
158	5.279326923076923	1.5310120280542652	-0.523731565515168	0.0	1.54942802897931	-0.5245752198616168	0.0	1.5381267251359358	-0.7791456474998029	0.0	1.4819137771655715	-1.0198176464342519	0.0	1.5974578678827591	-1.0491257260476745	0.0	1.5768315503972732	-1.0604324533524214	0.0	1.4560029448387268	-1.0548826179657347	0.0	1.5347918837627121	-0.5256127084440795	0.0	1.5964451937504012	-0.7682993786473391	0.0	1.6514136664702135	-1.0156749887918393	0.0	1.7499150634385698	-1.0312038254435711	0.0	1.7230234108336604	-1.0205158451295917	0.0	1.6283728193725029	-1.04719459683132	0.0	1.5454496145045988	-0.15149538591928677	0.0	1.6109847252175389	-0.0054113531462505705	0.0	1.6216022969938957	-0.10442561584481681	0.0	1.5424247275664702	-0.2051370948222964	0.0	1.582016025038559	-0.39622957109565754	0.0	1.7004618399539733	-0.5351802155471909	0.0	1.4919868652085275	-0.20065872464999274	0.0	1.5026031315638577	-0.38185206410119077	0.0	1.5426934108258976	-0.5224472880166896	0.0
159	5.312740384615385	1.539517773823221	-0.5252988378695191	0.0	1.5588087248057638	-0.5265240090537064	0.0	1.550085035537643	-0.7810834542098308	0.0	1.483359481721021	-1.0205875243519091	0.0	1.6193038133329132	-1.0495972667707505	0.0	1.6008537959144586	-1.0609516446588436	0.0	1.4569914283493504	-1.0547580605971771	0.0	1.5439352599285787	-0.5280067081069543	0.0	1.6023230207335006	-0.7709617719494921	0.0	1.656019572359972	-1.0191205862395818	0.0	1.7504350724881257	-1.0344036827236172	0.0	1.7149354888679116	-1.0245982560249618	0.0	1.6182813740500737	-1.0493050245298112	0.0	1.552699648370003	-0.15213309228960803	0.0	1.6173679200819355	-0.006048257821834582	0.0	1.6286807873521223	-0.10428956485000503	0.0	1.5484037496731404	-0.20443403707098856	0.0	1.5882348540261333	-0.3967638576865696	0.0	1.7043653403863381	-0.5367953854062817	0.0	1.500743567190073	-0.20131852388027835	0.0	1.5174428278822714	-0.38310858058153646	0.0	1.5545238799265249	-0.5244140224177374	0.0
160	5.346153846153846	1.547045975914565	-0.5267751426394573	0.0	1.5670455344146343	-0.5282773802210848	0.0	1.5635292867689032	-0.7822914266871385	0.0	1.486286211604868	-1.0209258931121967	0.0	1.6422997666918668	-1.0503706663502779	0.0	1.6259172989733175	-1.0615436993879572	0.0	1.4591519226168412	-1.0542545615925887	0.0	1.552427317155058	-0.5301057312619073	0.0	1.606938086432026	-0.7725579734938073	0.0	1.6568069550816134	-1.0210799425147346	0.0	1.748143688733666	-1.0362443092822526	0.0	1.7025030272225992	-1.0271242008278767	0.0	1.6004733689495467	-1.049965390990329	0.0	1.5596598926737713	-0.1528051253139944	0.0	1.6233056596314897	-0.006552814856902077	0.0	1.6352939715490389	-0.10399873504901748	0.0	1.5539262744099176	-0.2036162042220479	0.0	1.5932939257831937	-0.3972220176306206	0.0	1.7056784269295135	-0.539686179875286	0.0	1.5100484967706242	-0.20178751611190784	0.0	1.5316773804432535	-0.3843296187935353	0.0	1.5680270815287711	-0.5266774350000402	0.0
161	5.379567307692308	1.5535412169611627	-0.5279745776209542	0.0	1.5740174273997176	-0.5297023809702843	0.0	1.5774549027059548	-0.7826800149246862	0.0	1.4916312150527462	-1.0206804248857404	0.0	1.6606141111397204	-1.0514790289339453	0.0	1.6456003152784446	-1.0622064909797313	0.0	1.4635947988454505	-1.053417619149716	0.0	1.5593376570358788	-0.5317322677822314	0.0	1.611058748923003	-0.773019340122468	0.0	1.6541046534088364	-1.0218984778704732	0.0	1.745661229056426	-1.0370318482168621	0.0	1.6905119972008693	-1.028389418302432	0.0	1.5799326826328528	-1.0498087644793173	0.0	1.5663805200742904	-0.15347433039682948	0.0	1.6288259903405078	-0.006849055480823429	0.0	1.641641714436672	-0.1035843255291214	0.0	1.5594702109375682	-0.20287522661891308	0.0	1.5974688635919416	-0.39750849220874473	0.0	1.70445291177712	-0.5435893670078084	0.0	1.5191495070938241	-0.20202059791418492	0.0	1.5429119474810598	-0.38534203789974636	0.0	1.5822782248898957	-0.5293662234895512	0.0
162	5.412980769230769	1.5589594826706201	-0.5286716718251664	0.0	1.5795222594380425	-0.530595621116237	0.0	1.590754310998703	-0.7821494341703534	0.0	1.500655498778148	-1.020101792984109	0.0	1.673438966299372	-1.052818407219566	0.0	1.6588161458678274	-1.0629481151027178	0.0	1.471932417286434	-1.052505270181451	0.0	1.5642524419225543	-0.5327303008952167	0.0	1.6151547894808693	-0.7722899651102911	0.0	1.6473882846550716	-1.0218013328585023	0.0	1.743934917028168	-1.0371104457525724	0.0	1.6803425570967954	-1.0288050903366566	0.0	1.5607599133903538	-1.0491312637907255	0.0	1.5728090437555249	-0.15409083322012138	0.0	1.6339782408823469	-0.006924009212763851	0.0	1.6478258448801704	-0.10307583283557412	0.0	1.5650792577362505	-0.20234482357518363	0.0	1.6008820558063772	-0.3975465736601563	0.0	1.7007385142324112	-0.5480205491803635	0.0	1.5276464364373612	-0.2020352576870042	0.0	1.550556560649449	-0.385973195612926	0.0	1.59669536971318	-0.5322952308677011	0.0
163	5.446394230769231	1.5632032888669976	-0.5287354755991664	0.0	1.5833414073981393	-0.5308041699981131	0.0	1.60245449160724	-0.7807257889089565	0.0	1.5143966051459867	-1.0197024788408284	0.0	1.6842819437111802	-1.0541125131283675	0.0	1.6689180279963078	-1.0637337011075005	0.0	1.4857182755227625	-1.0519198221512256	0.0	1.5673120091104156	-0.5329890696422461	0.0	1.6190138604166038	-0.770504101030562	0.0	1.635841186243718	-1.0209680493877686	0.0	1.7424818645999933	-1.0367875788072496	0.0	1.6686961815671948	-1.0287622940469479	0.0	1.5440515457445094	-1.0480159598369991	0.0	1.5788003994167006	-0.15459695431858944	0.0	1.6389560461689758	-0.006789195069297309	0.0	1.653850508322535	-0.10257838611204124	0.0	1.5704002536832469	-0.20199101948635864	0.0	1.6034567633236263	-0.39725261108554005	0.0	1.6948584038304721	-0.5523548634174709	0.0	1.5355451677501895	-0.2018698756797442	0.0	1.5561223181332506	-0.3861645191441404	0.0	1.6103124105740587	-0.5351773902451221	0.0
